<?xml version="1.0" standalone="no"?>
<!DOCTYPE svg PUBLIC "-//W3C//DTD SVG 20010904//EN"
 "http://www.w3.org/TR/2001/REC-SVG-20010904/DTD/svg10.dtd">
<svg version="1.0" xmlns="http://www.w3.org/2000/svg"
 width="290.000000pt" height="290.000000pt" viewBox="0 0 290.000000 290.000000"
 preserveAspectRatio="xMidYMid meet">
<metadata>
Created by potrace 1.11, written by Peter Selinger 2001-2013
</metadata>
<g transform="translate(0.000000,290.000000) scale(0.100000,-0.100000)"
fill="#000000" stroke="none">
<path d="M1305 2889 c-25 -15 -65 -57 -65 -69 0 -5 -18 -19 -40 -31 -54 -30
-74 -65 -101 -177 -18 -73 -21 -102 -13 -130 7 -26 6 -48 -3 -72 -18 -54 -15
-78 14 -115 15 -19 28 -40 29 -47 0 -7 2 -23 2 -35 3 -32 45 -56 115 -64 90
-11 98 -47 14 -70 -56 -15 -74 -8 -172 67 -160 122 -254 149 -824 240 -19 3
-45 10 -58 15 -32 12 -63 11 -63 -1 0 -34 161 -170 201 -170 17 0 17 -3 4 -35
-11 -24 -12 -41 -5 -59 9 -25 61 -57 111 -69 25 -6 26 -10 22 -50 -4 -37 -1
-48 18 -66 13 -12 43 -27 67 -34 40 -11 42 -12 36 -43 -16 -84 27 -108 219
-121 48 -3 87 -9 87 -14 0 -4 -19 -30 -43 -58 -24 -27 -67 -97 -97 -155 l-54
-106 -53 0 c-48 0 -55 -3 -85 -36 -18 -20 -50 -47 -70 -60 -47 -30 -48 -51 -5
-62 22 -6 33 -15 35 -30 4 -28 16 -28 41 -1 21 23 60 19 62 -7 1 -8 3 -18 4
-24 1 -5 3 -23 4 -40 1 -18 6 -30 15 -30 18 0 85 73 128 141 26 40 57 69 120
112 90 62 139 108 182 172 31 47 32 37 7 -53 -24 -87 -46 -139 -76 -178 -38
-49 -82 -143 -99 -211 -16 -62 -25 -140 -30 -273 -3 -86 -12 -109 -62 -146
-52 -40 -80 -97 -109 -219 -33 -138 -51 -179 -107 -235 -24 -25 -48 -54 -53
-65 -28 -67 -8 -122 58 -154 74 -36 76 -35 136 85 39 75 196 303 240 348 l21
20 47 -23 c26 -13 56 -25 66 -27 28 -5 49 56 45 132 -1 34 -1 65 2 68 5 4 51
-4 190 -31 19 -4 74 -8 122 -8 101 0 129 14 165 84 19 37 22 56 19 130 -2 47
-7 97 -10 111 -3 14 -15 65 -26 113 l-22 89 30 61 c28 58 86 232 96 287 2 14
8 43 14 65 5 22 15 75 22 118 7 42 17 77 22 77 6 0 22 -8 36 -19 46 -32 166
-89 224 -106 143 -41 301 -9 432 88 39 29 91 65 116 79 25 15 69 49 98 77 42
41 52 57 52 84 0 18 -5 38 -12 45 -8 8 -8 15 1 26 23 27 2 38 -60 34 -66 -5
-87 -19 -141 -99 -36 -52 -63 -63 -208 -89 -172 -30 -184 -26 -345 114 -37 31
-38 35 -20 42 29 11 127 74 146 93 50 52 69 114 45 146 -12 17 -10 22 25 54
40 37 53 74 36 102 -8 12 -3 24 19 48 37 42 45 73 28 107 -13 24 -12 31 12 80
14 29 28 79 31 111 l6 58 -23 -20 c-13 -11 -35 -31 -49 -44 -14 -13 -66 -57
-116 -98 -49 -41 -134 -118 -188 -171 -106 -104 -142 -163 -151 -245 -7 -62
-32 -99 -82 -117 -53 -20 -59 -4 -17 44 39 45 57 86 69 161 5 38 17 59 32 60
65 5 100 85 71 162 -6 15 -15 52 -21 82 -11 60 -33 101 -54 101 -8 0 -24 16
-36 35 -13 19 -29 35 -36 35 -7 0 -17 12 -23 27 -22 57 -37 65 -159 77 -139
15 -206 16 -225 5z m5 -1997 c0 -28 -26 -59 -40 -46 -8 8 -5 18 10 37 25 32
30 33 30 9z"/>
</g>
</svg>
